<svg xmlns="http://www.w3.org/2000/svg" viewBox="0 0 41.15 44.12"><defs><style>.cls-1{fill:#fbad18;}</style></defs><g id="Layer_2" data-name="Layer 2"><g id="Layer_1-2" data-name="Layer 1"><path d="M36.52,7.32S29-4.12,12.79,1.6C12.79,1.6,4,4,0,18.07c0,0,8.12,13,27.91,8.81,0,0,16.93-4.41,8.58-19.56ZM25.88,18.76C22.56,20.3,17.53,19.9,14,19c-.22-.06-4.74-1.66-4.51-2.06,3.31-6.12,12-11.73,18-5.49a4.75,4.75,0,0,1,1.32,2.17c.51,2.17-1,4.29-2.92,5.15Z"/><path class="cls-1" d="M.09,22.3s-1.94,15.33,12.3,20.36,25.44-4.17,28.76-9.89L33,28S26.68,41.12,8.44,32.6c0,0-6.63-3.89-8.35-10.3Z"/></g></g></svg>