<svg xmlns="http://www.w3.org/2000/svg" viewBox="0 0 14.75 14.78"><defs><style>.cls-1{fill:#f8aa1a;}</style></defs><g id="Layer_2" data-name="Layer 2"><g id="Layer_1-2" data-name="Layer 1"><path class="cls-1" d="M12.62,7.16c0,.26-.06.52-.1.78a1.11,1.11,0,0,0,.16.82,2.83,2.83,0,0,1-.42,3.56,2.92,2.92,0,0,1-3.62.33.91.91,0,0,0-.56-.13A5.46,5.46,0,0,1,1.79,8.4a5.47,5.47,0,0,1,8.1-6A5.54,5.54,0,0,1,12.62,7.16ZM12,8a5,5,0,0,0-9-3.56c-1.17,1.79-1,4.57.36,5.84A2.66,2.66,0,0,1,5.23,8.36a3,3,0,0,0,.52-.23,2.9,2.9,0,0,1,2.63-.06A2.87,2.87,0,0,1,12,8Zm.62,2.32A2.32,2.32,0,0,0,10.28,7.9a2.37,2.37,0,1,0,2.32,2.38ZM8,12.05A3,3,0,0,1,8,8.43a3.46,3.46,0,0,0-1.78,0A10.79,10.79,0,0,0,5.07,9a1.94,1.94,0,0,0-1.28,1.4.68.68,0,0,0,.08.52A4.92,4.92,0,0,0,8,12.05Z"/><path class="cls-1" d="M3.44,14.27l0,.51H1.6c-1.59,0-1.6,0-1.6-1.6V11.35l.49,0c0,.83,0,1.62,0,2.41,0,.42.14.57.56.55C1.83,14.25,2.62,14.27,3.44,14.27Z"/><path class="cls-1" d="M14.26,11.32l.48,0c0,.93,0,1.84,0,2.74a.7.7,0,0,1-.74.68c-.88,0-1.75,0-2.68,0l0-.5H13.6c.66,0,.66,0,.66-.66Z"/><path class="cls-1" d="M11.31.49V.06a.43.43,0,0,1,.13,0c.85,0,1.71,0,2.56,0a.66.66,0,0,1,.73.66c0,.91,0,1.82,0,2.76h-.48c0-.82,0-1.62,0-2.43,0-.38-.12-.53-.51-.52C13,.5,12.15.49,11.31.49Z"/><path class="cls-1" d="M3.43,0l0,.48h-2c-.17,0-.33,0-.49,0C.61.47.48.6.49.93c0,.82,0,1.64,0,2.5H0c0-1,0-1.92,0-2.86A.78.78,0,0,1,.64,0C1.56,0,2.48,0,3.43,0Z"/><path class="cls-1" d="M7,3.38a1.6,1.6,0,0,1,1.7,1.87c0,.31-.06.61-.1.92a1.6,1.6,0,0,1-3.17,0,7.47,7.47,0,0,1-.11-1.06A1.58,1.58,0,0,1,7,3.38ZM8.28,5.17A1.18,1.18,0,0,0,7,3.83,1.17,1.17,0,0,0,5.78,5.21c0,.31.06.62.11.92A1.16,1.16,0,0,0,7,7.1a1.13,1.13,0,0,0,1.13-.93C8.22,5.84,8.24,5.5,8.28,5.17Z"/><path class="cls-1" d="M9.76,11l1.3-1.34c.09-.09.17-.22.29-.27a1.1,1.1,0,0,1,.37-.06c0,.13,0,.31,0,.39-.56.59-1.15,1.18-1.74,1.74a.4.4,0,0,1-.41,0,5.32,5.32,0,0,1-.75-.75c-.06-.07,0-.23,0-.34s.27,0,.35,0A6.32,6.32,0,0,1,9.76,11Z"/></g></g></svg>