<svg xmlns="http://www.w3.org/2000/svg" viewBox="0 0 11.92 15.42"><defs><style>.cls-1{fill:#f8aa1a;}</style></defs><g id="Layer_2" data-name="Layer 2"><g id="Layer_1-2" data-name="Layer 1"><path class="cls-1" d="M3.61,15.42H1c.05-.25.11-.49.16-.73.11-.5.24-1,.3-1.51-.33-.71-.7-1.4-1-2.1A4.84,4.84,0,0,1,0,9.75c.34-1,.61-2.08,1-3.1A11.54,11.54,0,0,1,2.2,5.26s0,0,.07-.06V7.74A.62.62,0,0,0,1.4,8a1.16,1.16,0,0,0-.09,1c.17.46.34.92.52,1.37A2.08,2.08,0,0,1,2,11.39c0,.08,0,.18.11.19s.16-.05.18-.15a2.18,2.18,0,0,0-.15-1.16L1.6,8.92a.92.92,0,0,1,0-.76.33.33,0,0,1,.57-.09,1.32,1.32,0,0,1,.16.25,24,24,0,0,0,1.4,2.41A3.25,3.25,0,0,1,4,14.33a5.14,5.14,0,0,0-.32.91S3.63,15.36,3.61,15.42Z"/><path class="cls-1" d="M11.41.51H3.07V9H3c-.21-.55-.66-1-.37-1.77A7.71,7.71,0,0,0,3.07,3C2.49.35,2.2-.16,3.48,0a22.37,22.37,0,0,0,7.57,0c1-.19,1,.27.54,1.91a15.86,15.86,0,0,0,.18,9.4c.4,1.27,0,1.55-1.39.92a5.52,5.52,0,0,0-4.13-.13c-1.41.5-1.28.46-1.54.45l-.06-.49h6.76Z"/><path class="cls-1" d="M9,11.21H8.68l0-.24A.92.92,0,0,1,8,10.58a2.4,2.4,0,0,1-.17-.39l.48,0,.31.4.05,0V9.77l-.26-.1a.76.76,0,0,1-.49-.76.73.73,0,0,1,.62-.66l.13,0,0-.23h.26l0,.23a.79.79,0,0,1,.73.63l-.41.05s-.08-.05-.11-.08L9,8.63,9,8.65c0,.21,0,.42,0,.63,0,0,0,.07.09.09l.29.1a.74.74,0,0,1,.16,1.26.94.94,0,0,1-.31.17C9,10.94,8.9,11,9,11.21Zm0-.67a.35.35,0,0,0,.34-.35A.33.33,0,0,0,9,9.87Zm-.3-1.31v-.6a.31.31,0,0,0-.25.3C8.4,9.08,8.49,9.18,8.66,9.23Z"/><path class="cls-1" d="M7.23,3.6H4.33a.23.23,0,0,1-.21-.24.25.25,0,0,1,.21-.25,1,1,0,0,1,.17,0H10a.65.65,0,0,1,.14,0,.25.25,0,0,1,0,.5H7.23Z"/><path class="cls-1" d="M7.25,6.76H10a.55.55,0,0,1,.18,0,.2.2,0,0,1,.16.24.51.51,0,0,1-.17.22s-.12,0-.18,0H4.42c-.18,0-.3-.1-.3-.24s.11-.26.3-.26H7.25Z"/><path class="cls-1" d="M7.23,4.82H4.36a.23.23,0,0,1-.24-.22.25.25,0,0,1,.23-.27H10a.47.47,0,0,1,.17,0,.23.23,0,0,1,.18.25.24.24,0,0,1-.2.22H7.23Z"/><path class="cls-1" d="M7.25,5.54h2.92a.22.22,0,0,1,.19.22.21.21,0,0,1-.17.25A.65.65,0,0,1,10,6H4.32a.24.24,0,0,1-.2-.24.23.23,0,0,1,.21-.24H7.25Z"/><path class="cls-1" d="M7.25,1.88H8.83c.21,0,.32.09.32.25s-.23.31-.62.21a5.14,5.14,0,0,0-2.67,0c-.32.07-.52,0-.52-.23s.12-.25.32-.25Z"/><path class="cls-1" d="M5.67,8.48H4.43c-.19,0-.31-.1-.31-.25,0-.33.61-.45,1.18.35a.29.29,0,0,0,.44.05c.88-.81,1.5-.77,1.5-.4,0,.16-.11.25-.31.25Z"/></g></g></svg>