<svg xmlns="http://www.w3.org/2000/svg" viewBox="0 0 13.97 12.02"><defs><style>.cls-1{fill:#f8aa1a;}</style></defs><g id="Layer_2" data-name="Layer 2"><g id="Layer_1-2" data-name="Layer 1"><path class="cls-1" d="M14,.34V8.66a.65.65,0,0,1-.68.37h-5v1.61c.63.19,1.24.37,1.85.57.31.11.43.33.34.57s-.31.3-.63.19l-.11,0a7,7,0,0,0-4-.41A16.42,16.42,0,0,0,4.1,12c-.35.1-.61,0-.62-.33a.42.42,0,0,1,.36-.44l1.83-.58V9H2a.46.46,0,0,0-.26.13l-.95.94c-.34.34-.54.32-.81-.08V9.84L.7,9A.67.67,0,0,1,0,8.66V.34A.68.68,0,0,1,.67,0H13.3A.68.68,0,0,1,14,.34ZM2.69,8.2H13.15V.83H.83V8.25c.28,0,.62,0,.78-.12.52-.43,1-.94,1.47-1.43a2.51,2.51,0,0,1-.6-2.09A2.41,2.41,0,0,1,5.3,2.7,2.41,2.41,0,0,1,7.17,5.49,2.37,2.37,0,0,1,3.92,7.26a.33.33,0,0,0-.29,0C3.33,7.57,3.05,7.86,2.69,8.2ZM4.84,6.62A1.55,1.55,0,0,0,6.4,5,1.59,1.59,0,0,0,4.83,3.46,1.62,1.62,0,0,0,3.24,5,1.58,1.58,0,0,0,4.84,6.62ZM7.45,9.05H6.53v1.53h.92Z"/><path class="cls-1" d="M10,4.93c0,.7,0,1.39,0,2.08,0,.33-.13.48-.39.48S9.15,7.33,9.15,7c0-1.38,0-2.75,0-4.13,0-.32.17-.51.42-.5s.38.17.38.5C10,3.57,10,4.25,10,4.93Z"/><path class="cls-1" d="M11.25,5.49c0,.52,0,1,0,1.55,0,.3-.14.45-.39.45s-.4-.15-.4-.45V3.94c0-.26.11-.44.4-.45s.39.15.39.45C11.26,4.46,11.25,5,11.25,5.49Z"/><path class="cls-1" d="M12.56,6v1c0,.25-.11.42-.38.43a.37.37,0,0,1-.41-.4c0-.7,0-1.41,0-2.11a.36.36,0,0,1,.41-.4c.26,0,.38.17.38.43Z"/><path class="cls-1" d="M7.88,6.31V5.53a.4.4,0,0,1,.79,0c0,.55,0,1.1,0,1.64a.35.35,0,0,1-.42.36.36.36,0,0,1-.37-.41Z"/></g></g></svg>