<svg xmlns="http://www.w3.org/2000/svg" viewBox="0 0 14.93 14.11"><defs><style>.cls-1{fill:#f8aa1a;}</style></defs><g id="Layer_2" data-name="Layer 2"><g id="Layer_1-2" data-name="Layer 1"><path class="cls-1" d="M8.06,12v1.09a.9.9,0,0,1-1,1H1a.89.89,0,0,1-1-1c0-2.77,0-5.53,0-8.29a1.8,1.8,0,0,1,.39-1C.94,3.12,1.55,2.51,2.1,1.86a1,1,0,0,0,.19-.59c0-.55.22-.8.76-.82a.8.8,0,0,0,.5-.21c.36-.31.68-.34,1,0a1,1,0,0,0,.79.35C6.13.65,7,.68,7.76.77a1.69,1.69,0,0,1,.9.41c2,2,4,4,5.95,5.94a.84.84,0,0,1,0,1.32q-2.16,2.18-4.35,4.35a.86.86,0,0,1-1.35,0c-.26-.26-.51-.53-.76-.8ZM7.63,9c0-1.33,0-2.66,0-4a1.48,1.48,0,0,0-.39-1Q5.77,2.32,4.35.69C4.11.41,4,.43,3.74.69,2.76,1.8,1.76,2.88.8,4a1.51,1.51,0,0,0-.35.91c0,2.7,0,5.4,0,8.1,0,.52.13.65.65.65H7c.54,0,.66-.13.67-.68ZM5.2,1C6,1.92,6.76,2.77,7.52,3.6A1.94,1.94,0,0,1,8.06,5c0,1.62.07,3.24,0,4.85a2.6,2.6,0,0,0,1.09,2.53l.05.06c.33.31.52.32.84,0l4.27-4.26c.32-.33.33-.52,0-.84-2-2-3.92-3.93-5.89-5.88a1.15,1.15,0,0,0-.61-.31C7,1.09,6.14,1.06,5.2,1Z"/><path class="cls-1" d="M4,7.27c-.62,0-1.24,0-1.85,0a1,1,0,0,1-1.1-1,1,1,0,0,1,1-1.07c.71,0,1.42,0,2.13,0H5.87A1.05,1.05,0,0,1,7,6.26a1,1,0,0,1-1.15,1C5.23,7.28,4.62,7.27,4,7.27Zm0-.42c.62,0,1.24,0,1.85,0,.43,0,.68-.22.69-.59s-.23-.6-.69-.61H2.2c-.47,0-.71.21-.71.6s.26.6.72.6S3.42,6.85,4,6.85Z"/><path class="cls-1" d="M2.57,12a1.24,1.24,0,0,1-.14-.39c0-.07.1-.15.16-.21L5.13,8.9c0-.05.09-.12.14-.13a1.69,1.69,0,0,1,.32,0c0,.11,0,.25,0,.32a4.16,4.16,0,0,1-.46.48L2.94,11.73A3.89,3.89,0,0,1,2.57,12Z"/><path class="cls-1" d="M4.9,2.21a.87.87,0,1,1-1.74,0A.89.89,0,0,1,4,1.34.89.89,0,0,1,4.9,2.21Zm-.78-.49H3.94c-.11.16-.3.31-.33.48A.36.36,0,0,0,4,2.63a.61.61,0,0,0,.39-.43C4.45,2.06,4.24,1.88,4.12,1.72Z"/><path class="cls-1" d="M3.43,10a.83.83,0,0,1-.84-.81.84.84,0,1,1,1.67,0A.83.83,0,0,1,3.43,10Zm.1-1.28H3.36C3.24,8.84,3,9,3,9.13a.55.55,0,0,0,.36.39.53.53,0,0,0,.39-.35C3.82,9,3.63,8.85,3.53,8.7Z"/><path class="cls-1" d="M5.5,11.46a.83.83,0,0,1-.82.83.84.84,0,0,1,0-1.67A.84.84,0,0,1,5.5,11.46Zm-1.29-.1v.18c.15.1.31.3.44.28s.28-.23.41-.35c-.12-.14-.24-.37-.38-.39S4.37,11.26,4.21,11.36Z"/></g></g></svg>