<svg xmlns="http://www.w3.org/2000/svg" viewBox="0 0 13.62 14.11" width="164" height="164"><defs><style>.cls-1{fill:#f8aa1a;}</style></defs><g id="Layer_2" data-name="Layer 2"><g id="Layer_1-2" data-name="Layer 1"><path class="cls-1" d="M9.25,11.38c0,.69,0,1.38,0,2.07,0,.21.12.51-.19.6s-.32-.23-.45-.38a4.67,4.67,0,0,1-.31-.44l-.37.55a.61.61,0,0,1-1.09,0l-.38-.55-.35.53a.62.62,0,0,1-1.11,0l-.37-.55-.38.55a.61.61,0,0,1-1.08,0l-.37-.55-.38.55a.62.62,0,0,1-1.09,0L1,13.23c-.15.21-.25.4-.39.56a2,2,0,0,1-.39.26A1.12,1.12,0,0,1,0,13.64C0,12.43,0,11.21,0,10V1.92A1.76,1.76,0,0,1,1.92,0H9.57c.77,0,1.09.32,1.09,1.09s.07.69-.68.69h-.7v2a3.86,3.86,0,0,1,4.34,3.89A3.9,3.9,0,0,1,9.25,11.38Zm-2.14-1c-.28-.43-.56-.82-.79-1.24a.42.42,0,0,0-.44-.28H2a.69.69,0,0,1-.25,0,.66.66,0,0,1-.23-.18,1,1,0,0,1,.22-.18A.69.69,0,0,1,2,8.5H6L5.93,7H5.59C4.36,7,3.14,7,1.91,7c-.12,0-.34-.11-.35-.18,0-.24.2-.19.36-.2H5.76c.11,0,.27,0,.31-.1.24-.45.44-.92.67-1.41H1.82c-.09,0-.18-.11-.27-.16a1.31,1.31,0,0,1,.27-.21.74.74,0,0,1,.26,0c1.6,0,3.21,0,4.82,0a1.28,1.28,0,0,0,.55-.18,10.22,10.22,0,0,1,1.09-.56.41.41,0,0,0,.33-.49c0-1,0-2,0-3.06H2A1.39,1.39,0,0,0,.39,2V13c0,.09,0,.18,0,.35l.33-.5c.14-.21.28-.22.43,0s.29.45.45.68.31.28.5,0,.28-.42.42-.63.3-.3.51,0,.27.42.42.63.31.25.49,0l.47-.7c.13-.2.27-.2.4,0s.32.49.49.73.29.23.45,0,.3-.45.45-.68.3-.27.5,0l.38.57c.23.35.33.35.56,0l.41-.63c.18-.25.29-.25.46,0s.18.26.26.39l.08,0V11.94c0-.62,0-.58-.56-.87a3,3,0,0,0-1.51-.29H2.34a3.37,3.37,0,0,1-.55,0c-.09,0-.16-.13-.24-.2a1.31,1.31,0,0,1,.24-.17.69.69,0,0,1,.25,0H7.11Zm6.11-2.86A3.44,3.44,0,1,0,9.78,11,3.44,3.44,0,0,0,13.22,7.54ZM9.76,1.38c.25,0,.53.09.5-.34S10.08.41,9.77.41,9.3.64,9.26,1,9.54,1.37,9.76,1.38Z"/><path class="cls-1" d="M3.13,2.15a2.18,2.18,0,0,1-.35.11s-.09-.1-.15-.12a.51.51,0,0,0-.3,0,.24.24,0,0,0-.09.21.47.47,0,0,0,.2.22,2.87,2.87,0,0,1,.44.17.63.63,0,0,1,0,.95A2,2,0,0,1,2.62,4a.3.3,0,0,1-.27,0A2.19,2.19,0,0,1,2,3.6c0-.07,0-.19,0-.28a1.37,1.37,0,0,1,.29,0,1.72,1.72,0,0,0,.37.07s.12-.19.09-.23A.51.51,0,0,0,2.42,3a.71.71,0,0,1-.57-.52c-.07-.28.11-.46.27-.68.3-.4.49-.28.72,0Z"/><path class="cls-1" d="M5.85,2.78h1.4c.17,0,.44-.09.44.18s-.28.2-.45.2H4.38c-.17,0-.44.09-.45-.18s.26-.19.43-.2Z"/><path class="cls-1" d="M12.71,7.56A2.92,2.92,0,1,1,9.8,4.63,2.93,2.93,0,0,1,12.71,7.56ZM9.78,5a2.51,2.51,0,1,0,2.52,2.5A2.51,2.51,0,0,0,9.78,5Z"/><path class="cls-1" d="M9.21,6.77c0,.31.24.52.63.57a.93.93,0,0,1,.9,1,1.78,1.78,0,0,1-.38.75c-.13.16-.41.18-.41.47,0,0-.13.11-.18.1s-.12-.11-.18-.17l-.26-.31A3.15,3.15,0,0,1,9,8.82c0-.06,0-.2,0-.27s.17,0,.25,0,.09.1.14.14a.52.52,0,0,0,.62.11.53.53,0,0,0,.32-.56.52.52,0,0,0-.4-.49l-.26,0A1,1,0,0,1,8.82,7a1,1,0,0,1,.5-1c.14-.08.28-.13.29-.34,0,0,.11-.14.17-.14s.18.08.18.13c0,.23.16.28.31.36a.84.84,0,0,1,.3.29c0,.08,0,.21,0,.32a1.41,1.41,0,0,1-.31-.07c-.08,0-.14-.14-.22-.19A.57.57,0,0,0,9.21,6.77Z"/></g></g></svg>