<?xml version="1.0" encoding="UTF-8"?>
<svg version="1.1" viewBox="0 0 2048 2048" width="64" height="64" xmlns="http://www.w3.org/2000/svg">
<path transform="translate(610,379)" d="m0 0h8l6 5 1 6v33l9 6 11 8 7 7 8 14 4 11 1 6 1 28v50h11l7 2 2 4v70l-4 4-2 1-15 1 1 7v64l35 1 5 5v91l-1 2h-2l-1 3-7 1h-23l-6-1v21h715l1-20h-34l-4-2-3-5v-88l3-5 2-2 35-1 1-71h-10l-7-2-3-4v-70l4-5 3-1h13v-74l4-16 6-12 7-9 9-9 14-9 1-38 3-5 4-2h7l6 4 1 5v34l4 4 11 7 10 9 7 9 5 11 3 12 1 16v63h12l7 3 1 3v70l-4 4-2 1h-14l1 72h26l10 2 3 3 1 5v85l-4 6-7 2h-30v143h51l7 2 3 5v253l-2 4-4 2-34 1-1 450h33l6 3 2 4v6l-4 6-1 1-1010 1-24-1-5-5-1-6 3-6 4-3h34v-450h-25l-10-1-4-3-1-3-1-38v-214l4-6 2-1 14-1h42v-143h-34l-4-2-3-5v-89l4-5 2-1 35-1-1-71h-8l-8-2-3-4-1-21 1-49 5-5 15-1v-74l3-14 8-16 8-10 11-9 10-6 1-38 3-5zm2 64-11 6-10 10-6 13-2 9 59 1 3-1-2-9-6-12-8-9-10-7zm819 0-12 7-8 8-6 12-2 6v5h61l-2-9-6-12-9-10-9-6zm-846 58-2 1v51h21l1-24 4-5 7-1 6 3 2 6 1 21h20v-51l-5-1zm820 0-3 1v50l1 1h20l1-25 5-4 4-1 7 2 2 2 1 6 1 20h20v-51l-1-1zm-842 72v41h20l1-2v-8l2-6 4-3 9 1 3 3 1 3 1 12 19 1 1-1 2-15 3-3 8-1 5 2 2 5 1 12 1 1h19v-42zm819 0v41l19 1 2-1v-8l2-8 4-3h7l5 3 1 3 1 13 19 1 2-1 1-15 3-3 7-1 7 3 1 2 1 14 1 1h18l2-1v-40l-1-1zm-799 62v71l61 1 1-1v-71zm819 0v66l1 5 14 1h46l1-1v-71zm-860 92v61l1 1h19l1-25v-7l3-5 3-3h7l5 3 1 2 1 34 1 1h19l1-1 1-33 2-4 3-2h8l4 2 2 8 1 30h19l1-1 1-35 5-4h9l4 4 1 8v17l1 11h19l1-1v-61zm820 0v62h19l1-1 1-34 5-5 4-1 8 2 2 7 1 32h20l1-34 2-4 3-2h8l5 3 1 4 1 33h19l1-1 1-33 2-4 3-2h8l5 3 1 4 1 32 1 1h19v-62zm-778 82-1 2v141h62v-143zm818 0v143h62v-143zm-736 41-1 5v15l4 1h697l16-1v-20zm704 40-705 1v61l24 1 17-1 1-15 4-9 6-8 9-6 6-2h9l11 4 8 7 5 8 2 8 1 13 10 1h9l1-1 2-18 5-10 8-7 8-4 4-1h7l10 3 6 4h2l2 4 5 8 2 7 1 14 7 1h12l1-2 1-15 6-12 9-8 10-4h8l10 3 6 4 7 8 3 7 2 18 10 1h9l1-1 2-18 5-10 9-8 11-4h7l10 3 6 4 7 8 3 7 2 18 8 1h11l2-17 6-12 9-8 10-4h8l10 3 8 6 4 5 4 8 1 14 1 4 10 1h9l1-1 1-15 4-10 7-8 8-5 6-2h8l10 3 8 6 4 5 4 9 2 17 8 1h11l2-18 5-10 7-7 9-5 4-1h8l10 3 8 6 6 9 2 5 1 17 10 1h10l1-1 1-16 3-8 9-10 9-5 4-1h7l13 4 8 7 6 12 1 13 1 4h40v-62zm-638 42-5 6v14l13 1 7-1v-13l-3-5-2-2zm83 0-5 4-1 4v12l16 1 4-1v-14l-2-4-3-2zm81 0-5 6-1 5v8l1 1 14 1 5-1 1-4v-8l-3-6-3-2zm82 0-4 4-1 3v13l16 1 4-1v-13l-3-5-3-2zm82 0-5 5-1 5v10l7 1h10l3-1 1-9-3-9-3-2zm82 0-4 4-1 2-1 10 1 4 16 1 4-1v-13l-3-5-3-2zm82 0-5 5-1 4v11l14 1 6-1v-14l-3-5-2-1zm82 0-5 5-1 4v11l11 1 10-1v-12l-2-5-4-3zm-784 41v225h184v-225zm205 0v225h20l1-98 3-16 6-15 9-13 8-8 13-9 8-4h7l12 6 9 7 9 8 9 14 6 16 2 16 1 96h20l1-100 4-18 8-16 7-9 9-9 11-7 8-4h7l12 6 14 11 8 10 8 16 3 9 2 16v95h103l1-102 4-16 8-16 10-13 10-8 10-6 5-2 9 1 11 6 9 7 4 2 2 4 6 7 8 16 4 15 1 105h21l1-104 4-15 7-14 7-9 6-7 13-9 10-5h7l13 7 10 8 8 8 9 15 5 15 1 7 1 103h21v-225h-20l-1 2-1 12-5 5h-7l-5-3-1-2-1-14h-20l-1 3-1 11-5 5h-7l-4-2-2-3-1-14h-20l-1 3-1 11-5 5h-7l-6-5-1-13-1-1h-19l-1 11-3 6-3 2h-7l-5-5-2-14h-20l-2 13-2 5-3 1h-7l-5-4-2-15h-20l-2 13-3 5-2 1h-7l-5-4-1-2-1-13h-20l-1 3-1 11-5 5h-7l-5-4-1-2-1-13h-20l-1 11-3 6-3 2h-7l-5-5-1-11-1-3h-20l-2 14-2 4-3 1h-7l-5-5-2-14h-20l-2 14-5 5h-7l-5-4-1-3-1-12h-20l-2 14-5 5h-7l-5-4-1-3-1-12h-20l-1 12-4 6-2 1h-7l-5-5-1-13-1-1h-20l-1 11-3 6-3 2h-7l-5-5-2-14h-20l-2 14-4 5h-8l-5-4-2-15zm614 0v225h184l1-108v-117zm-544 82-10 8-9 10-6 10-3 9-1 5v101h61v-103l-4-13-5-9-9-10-7-6-3-2zm123 0-10 8-7 7-8 13-4 12v103h61v-101l-3-12-6-12-9-10-7-6-4-2zm205 0-10 8-8 8-8 14-3 10-1 9v94h62v-101l-3-12-6-12-11-12-9-6zm123 0-9 7-9 9-7 11-4 12-1 12v92h62v-96l-2-14-8-16-9-10-10-7zm-684 163-1 1v450l101 1 2-2v-449l-1-1zm122 0v451l21 1 81-1v-451h-19l-1 1-2 16-4 2-1 1h-6l-6-4-1-2-1-14h-19l-1 1-1 12-2 4-4 3h-6l-6-4-1-2-1-14zm121 0-1 450 1 1 25 1h14l2-1 1-218 3-20 5-20 8-20 10-19 11-16 9-11 11-12 7-7 11-9 18-13 23-13 29-16 26-14 8 1 26 14 23 13 22 12 18 12 16 13 14 13 9 11 10 13 13 23 8 20 5 16 3 15 2 20 1 212 8 1h32l1-1v-451h-20l-1 5-1 10-6 5h-6l-5-4-1-2-1-13-3-1h-17l-1 4-1 11-5 5h-7l-5-4-1-2-1-13-2-1h-18l-1 2-1 12-2 4-3 2h-7l-5-4-1-2-1-13-1-1h-19l-2 14-5 6h-6l-6-4-1-2-1-14h-20l-1 2v10l-3 5-3 3-9-1-4-6v-12l-1-1h-20l-1 3v8l-3 7-3 2h-7l-5-5-1-2-1-13h-20l-2 15-5 5h-7l-5-5-1-3-1-12h-20l-2 15-5 5-9-1-4-6-1-13h-19l-1 1-1 11-1 5-4 2-1 1-9-1-3-3-1-3-1-13h-20l-1 12-3 6-3 2h-7l-5-5-1-3-1-12zm453 0-1 7v444l14 1h87l2-1v-450l-1-1h-19l-1 1-1 13-2 4-3 2h-7l-6-5-1-14-8-1h-12l-1 4-1 10-5 6h-7l-5-4-1-2-1-13-1-1zm123 0-1 1v450h103v-450l-1-1zm-361 64-16 9-29 16-21 12-16 11-11 9-19 19-11 15-8 13-8 16-6 16-5 21-2 18v212l1 1h306v-221l-5-25-6-17-10-21-10-15-10-13-19-19-17-13-19-12-25-14-17-10-14-8z" fill="#fff"/>
<path transform="translate(731,1362)" d="m0 0h12l10 4 8 7 5 8 2 10v44l-2 5-3 3-6 1h-38l-8-1-5-6-1-16v-29l2-9 7-10 8-7zm3 20-6 4-1 2v35h20v-35l-4-5-2-1z" fill="#fff"/>
<path transform="translate(735,1464)" d="m0 0 13 2 7 4 8 8 4 8 1 6v47l-6 7h-49l-5-3-2-3-1-10v-36l2-8 4-7 5-6 10-7zm-2 21-6 5v35l1 1h19v-35l-5-6z" fill="#fff"/>
<path transform="translate(566,1096)" d="m0 0h14l8 3 10 9 5 9 1 5v48l-3 5-2 2-10 1h-35l-7-1-5-6v-50l4-9 9-10 8-5zm4 20-6 4-1 2v35h20v-35l-4-5-2-1z" fill="#fff"/>
<path transform="translate(730,1567)" d="m0 0h14l9 4 8 7 5 8 2 9v44l-3 7-2 2-6 1h-36l-10-1-4-4-1-3v-50l5-10 9-9zm3 20-6 5v36h20v-35l-4-5-2-1z" fill="#fff"/>
<path transform="translate(569,993)" d="m0 0h8l10 3 8 6 6 8 3 9v49l-3 5-3 2h-49l-5-3-2-5v-47l3-9 7-9 10-7zm2 20-6 4-2 2v35l1 1h18l1-1v-35l-5-5z" fill="#fff"/>
<path transform="translate(736,1259)" d="m0 0 12 2 9 6 7 8 3 7 1 6v45l-3 6-3 2h-50l-6-6v-51l5-10 6-7 10-6zm-3 21-6 5v36h20v-34l-3-5-3-2z" fill="#fff"/>
<path transform="translate(648,1096)" d="m0 0h14l9 4 8 7 6 10 1 3v50l-3 5-3 2h-51l-3-3-1-2-1-14v-35l3-10 7-9 9-6zm3 20-6 5v36h20v-35l-4-5-2-1z" fill="#fff"/>
<path transform="translate(650,993)" d="m0 0h9l10 3 9 7 6 10 2 6v49l-3 5-4 2h-49l-5-6-1-27v-21l3-10 7-9 8-6zm3 20-6 3-2 4v34l1 1h19v-35l-3-5-4-2z" fill="#fff"/>
<path transform="translate(1303,1567)" d="m0 0h14l10 4 5 4 7 10 2 6v51l-5 6-5 1h-39l-9-2-3-6-1-26v-16l1-9 4-8 8-9 8-5zm3 20-5 5-1 5v29l1 2h19l1-1v-32l-3-6-3-2z" fill="#fff"/>
<path transform="translate(1302,1465)" d="m0 0h17l10 5 8 9 4 9v52l-4 5-2 1h-49l-5-4-1-2-1-11v-32l2-12 6-9 5-5 5-4zm4 20-5 4-1 8v28l1 1h19l1-1v-32l-3-6-3-2z" fill="#fff"/>
<path transform="translate(1304,1362)" d="m0 0h12l9 3 10 9 6 12v51l-3 5-9 2h-36l-10-2-3-5-1-43 1-9 5-9 7-8zm3 20-4 2-3 7v31l1 1h19l1-1v-31l-2-5-5-4z" fill="#fff"/>
<path transform="translate(1467,1096)" d="m0 0h14l8 3 7 5 6 9 3 7v51l-5 6-11 1h-14l-27-1-4-5-1-25v-22l2-9 6-9 9-8zm4 20-6 4-1 2v35h20l1-1v-30l-2-6-3-3-2-1z" fill="#fff"/>
<path transform="translate(1304,1260)" d="m0 0h14l12 6 7 8 4 9v52l-4 5-2 1h-49l-5-4-1-2-1-10v-33l1-9 6-11 7-7 7-4zm2 20-5 4-1 5v29l1 3h19l1-1v-32l-3-6-3-2z" fill="#fff"/>
<path transform="translate(1470,993)" d="m0 0h8l10 3 9 7 6 9 2 6v50l-3 5-3 2h-50l-5-6-1-44 1-9 6-11 8-7 8-4zm2 20-6 4-2 4v33l1 1h18l2-4v-28l-3-7-5-3z" fill="#fff"/>
<path transform="translate(1388,993)" d="m0 0h8l10 3 8 6 6 8 3 7v51l-3 5-2 2h-50l-5-4-1-2-1-30v-14l2-11 5-8 5-5 8-6zm3 20-6 3-3 5v33l1 1h18l2-1v-33l-4-6-5-2z" fill="#fff"/>
<path transform="translate(1386,1096)" d="m0 0h13l10 4 9 9 5 10v52l-5 6h-52l-4-5-1-21v-27l3-10 6-8 7-6zm3 20-6 4-1 3v34h21v-33l-4-6-3-2z" fill="#fff"/>
<path transform="translate(853,1260)" d="m0 0h14l9 4 8 7 4 6 3 9v9l-4 10-9 10-10 5-12 1-10-3-10-9-5-8-2-6v-9l4-11 9-10zm3 20-5 4-2 7 3 6 3 3 7 1 5-3 3-3 1-6-3-6-4-3z" fill="#fff"/>
<path transform="translate(1180,1260)" d="m0 0h15l9 4 8 7 6 12v14l-5 10-6 7-8 5-8 2h-7l-10-3-9-7-5-7-3-8v-11l4-10 5-7 9-6zm3 20-5 5-1 7 4 7 5 2 6-1 5-4 1-2v-7l-4-6-2-1z" fill="#fff"/>
<path transform="translate(1017,1055)" d="m0 0h13l10 4 7 6 6 10 2 7-1 11-5 10-8 8-8 4-13 1-8-2-9-6-6-8-4-9v-11l5-12 8-8zm3 20-5 4-2 4 1 7 5 5 8 1 6-5 2-6-4-8-3-2z" fill="#fff"/>
</svg>
