<svg xmlns="http://www.w3.org/2000/svg" xmlns:xlink="http://www.w3.org/1999/xlink" viewBox="0 0 271.99 59.16"><defs><style>.cls-1{fill:url(#linear-gradient);}.cls-2{font-size:27.37px;font-family:Montserrat-BoldItalic, Montserrat BoldItalic;font-weight:700;font-style:italic;}.cls-3{fill:none;stroke-miterlimit:10;stroke:url(#linear-gradient-2);}.cls-4{fill:#fbad18;}</style><linearGradient id="linear-gradient" x1="272.28" y1="27.95" x2="137.37" y2="26.44" gradientUnits="userSpaceOnUse"><stop offset="0" stop-color="#ffec86"/><stop offset="0.09" stop-color="#ffec86" stop-opacity="0.97"/><stop offset="0.22" stop-color="#ffec86" stop-opacity="0.88"/><stop offset="0.38" stop-color="#ffec86" stop-opacity="0.74"/><stop offset="0.57" stop-color="#ffec86" stop-opacity="0.55"/><stop offset="0.78" stop-color="#ffec86" stop-opacity="0.3"/><stop offset="1" stop-color="#ffec86" stop-opacity="0"/></linearGradient><linearGradient id="linear-gradient-2" x1="269.09" y1="32.76" x2="132.72" y2="22.23" gradientUnits="userSpaceOnUse"><stop offset="0" stop-color="#fbad18"/><stop offset="0.08" stop-color="#fbad18" stop-opacity="0.97"/><stop offset="0.21" stop-color="#fbad18" stop-opacity="0.88"/><stop offset="0.36" stop-color="#fbad18" stop-opacity="0.74"/><stop offset="0.54" stop-color="#fbad18" stop-opacity="0.54"/><stop offset="0.74" stop-color="#fbad18" stop-opacity="0.29"/><stop offset="0.94" stop-color="#fbad18" stop-opacity="0"/></linearGradient></defs><g id="Layer_2" data-name="Layer 2"><g id="Layer_1-2" data-name="Layer 1"><polygon class="cls-1" points="271.99 54.05 107.42 54.05 128.57 0 271.99 0 271.99 54.05"/><text class="cls-2" transform="translate(192.14 36.64)">FEE</text><path class="cls-3" d="M268,39.69V14.34c-4-.7-8.71-4.72-9.39-9.23H143.73L131.28,48.94H258.63A11.28,11.28,0,0,1,268,39.69Z"/><path d="M133.8,43.69c7,8.64,13.61,8.47,19,6.12,4.92-2.17,7.5-8,6.64-14.41-.12.06-.35.06-.35.17-3.14,7.67-11.09,8.75-17.32,7-5.55-1.49-8.41-5.49-9.27-11a44.54,44.54,0,0,1-.46-6.12c-.05-8.3,0-16.53,0-25h9.9c.06.75.11,1.55.11,2.35V23.1a27,27,0,0,0,.35,4.29c.8,5.38,4.11,7.5,9.49,6.06,4.35-1.14,7.26-5.14,7.55-11,.28-6.29.23-12.58.28-18.87V.46h9.61a5.72,5.72,0,0,1,.23,1.08c0,12.3.29,24.6-.11,36.89-.52,14.53-12.87,23.39-27.17,20-4.75-1.15-9.09-3-12.52-6.64-1-1.08-1.2-1.88-.12-3.08,1.49-1.49,2.69-3.21,4.18-5Z"/><path d="M74.21,1V7.26C71.12,2.8,66.71,0,61.8,0,52.59,0,45.1,9.89,45.1,22.07s7.49,22.08,16.7,22.08c4.91,0,9.32-2.8,12.41-7.26v7.26H84.27V1ZM64.66,35.06c-5.44,0-9.9-5.84-9.9-13s4.41-13,9.9-13,9.89,5.83,9.89,13-4.4,13-9.89,13Z"/><path d="M119,15.61h0l7.21-3.77c-.12-3.32-2.35-6.35-5.15-8.12A21.72,21.72,0,0,0,111.55.86C106.17.29,100.4.74,96,3.77s-7,9.32-4.52,14.07c2.06,3.95,6.63,5.78,11,6.58s8.92,1.08,12.81,3.09c1,.51,2,1.25,2.06,2.34a3.52,3.52,0,0,1-1.43,2.63,12.14,12.14,0,0,1-19.62-6.63l-8,4.17c-1.66.92,4.52,8.58,5.32,9.27,5.89,5.15,14.76,5.94,22,3.54,5.09-1.71,9.89-5.49,10.92-10.75A11.12,11.12,0,0,0,124,22.65C121.5,20,117.9,18.7,114.3,18s-7.21-1-10.7-2.06c-1.49-.46-3.2-1.49-3.14-3.09.05-1.43,1.65-2.35,3-2.8a15.52,15.52,0,0,1,9.09-.52A9.41,9.41,0,0,1,119,15.61Z"/><path d="M36.52,7.49S29-3.95,12.79,1.77c0,0-8.81,2.4-12.76,16.47,0,0,8.12,13,27.91,8.81,0,0,16.93-4.4,8.58-19.56ZM25.88,18.93c-3.32,1.54-8.35,1.14-11.84.23-.22-.06-4.74-1.66-4.51-2.06,3.31-6.12,12-11.72,18-5.49a4.75,4.75,0,0,1,1.32,2.17c.51,2.17-1,4.29-2.92,5.15Z"/><path class="cls-4" d="M.09,22.47S-1.85,37.8,12.39,42.83s25.44-4.17,28.76-9.89L33,28.14S26.68,41.29,8.44,32.77c0,0-6.63-3.89-8.35-10.3Z"/></g></g></svg>