<svg xmlns="http://www.w3.org/2000/svg" viewBox="0 0 15.24 12.56"><defs><style>.cls-1{fill:#f8aa1a;}</style></defs><g id="Layer_2" data-name="Layer 2"><g id="Layer_1-2" data-name="Layer 1"><path class="cls-1" d="M11.18,6.1H6.92c-1,0-1.14.17-1.14,1.17v4.06a5.47,5.47,0,0,1-5-2.77A5.72,5.72,0,0,1,1.5,1.85,5.48,5.48,0,0,1,8,.56,5.68,5.68,0,0,1,11.18,6.1ZM4.88,1.59A5.33,5.33,0,0,0,3.56,5.17H4.88Zm0,8.39V6.24H3.54A6.38,6.38,0,0,0,4.88,10Zm-1.8-.3-.74-3.3H.94A4.71,4.71,0,0,0,3.08,9.68ZM2.33,5.19l.79-3.34A4.59,4.59,0,0,0,1,5.19Zm7.77,0A4.63,4.63,0,0,0,8,1.86l.77,3.33ZM6.2,1.41V5.17H7.51A6.45,6.45,0,0,0,6.2,1.41Z"/><path class="cls-1" d="M11,7.1h3.23c.68,0,1,.28,1,1q0,1.75,0,3.51c0,.66-.3,1-1,1H7.7c-.68,0-1-.29-1-1q0-1.78,0-3.57c0-.66.26-.92.92-.92Zm3.4,2L13.29,7.9H8.7L7.53,9v1.54l1.11,1.19h4.62l1.07-1.06c.1,0,.11-.07.11-.14Z"/><path class="cls-1" d="M9.67,9.73A1.27,1.27,0,0,1,11,8.44a1.3,1.3,0,0,1,1.28,1.31A1.34,1.34,0,0,1,11,11.08,1.29,1.29,0,0,1,9.67,9.73Z"/></g></g></svg>