<svg xmlns="http://www.w3.org/2000/svg" viewBox="0 0 14.61 14.07"><defs><style>.cls-1{fill:#f8aa1a;}</style></defs><g id="Layer_2" data-name="Layer 2"><g id="Layer_1-2" data-name="Layer 1"><path class="cls-1" d="M.56,11.92H7.4a1,1,0,0,1,.39,0,1.57,1.57,0,0,1,.33.26,4,4,0,0,1-.34.27.53.53,0,0,1-.22,0H.81c-.65,0-.81-.17-.81-.83V1.89c0-.66.14-.8.82-.8.25,0,.51,0,.76,0C1.73.27,2,0,2.44,0s.72.3.85,1.05h.47c.1-.74.34-1,.82-1s.71.27.89,1.06h2C7.74.22,8,0,8.47,0s.68.35.75,1h.47c.18-.79.43-1.08.92-1s.69.33.79,1.09c.29,0,.59,0,.88,0,.54,0,.71.18.71.69V6.55s0,.1,0,.13-.19.23-.29.34c-.08-.11-.22-.23-.22-.34,0-.78,0-1.56,0-2.34v-.5H.56ZM5.46,1.65c-.14,1-.17,1-.7,1.05-.81,0-.81,0-1-1H3.3c-.17,1-.19,1-.64,1-.27,0-.64,0-.78-.11a2.74,2.74,0,0,1-.35-.91h-1V3.22H12.43V1.67h-1c-.11.94-.16,1-.64,1-.85,0-.85,0-1.07-1H9.24c-.15,1-.18,1-.58,1s-.66,0-.82-.12a2.5,2.5,0,0,1-.38-.92Zm-2.77.5c0-.46,0-.88,0-1.31,0-.1-.15-.2-.24-.3-.09.11-.25.21-.26.32,0,.43,0,.85,0,1.29Zm2.17,0c0-.46,0-.87,0-1.28,0-.12-.17-.22-.26-.33-.08.1-.24.19-.25.3,0,.43,0,.87,0,1.31Zm3.8,0c0-.46,0-.87,0-1.29,0-.11-.17-.22-.26-.33-.08.11-.24.22-.25.33,0,.42,0,.85,0,1.29Zm2.17,0c0-.45,0-.88,0-1.3,0-.11-.18-.21-.28-.31-.07.11-.21.21-.22.32,0,.42,0,.85,0,1.29Z"/><path class="cls-1" d="M8.13,8.13c0,.6,0,1.13,0,1.66,0,.37-.14.52-.51.52-1.66,0-3.32,0-5,0-.35,0-.49-.12-.49-.48,0-1.31,0-2.63,0-3.94,0-.34.12-.47.46-.46h7.75c.36,0,.48.16.46.5,0,.57,0,1.13,0,1.69,0,.39-.12.55-.52.54C9.6,8.12,8.9,8.13,8.13,8.13ZM7.56,6H5.45V7.55H7.56Zm0,3.73V8.15H5.44V9.73ZM10.28,6H8.17V7.54h2.11ZM4.84,8.16H2.73V9.71H4.86V8.39A2.15,2.15,0,0,0,4.84,8.16ZM3.78,6.24c-.21-.06-.59-.27-.68-.18-.35.33.22.45.16.69l-.21.74.74-.2c.23.08.59.28.68.2.37-.33-.2-.46-.13-.71L4.51,6Z"/><path class="cls-1" d="M13,13c0,.72-.33,1.09-.85,1.07s-.79-.4-.78-1.07c-.42,0-.83,0-1.25,0-.12,0-.23-.14-.35-.21.09-.11.17-.26.28-.3a.64.64,0,0,0,.52-.69c0-.19,0-.38,0-.57,0-1.21.27-1.6,1.31-2a4.42,4.42,0,0,1,.21-.51s.2,0,.22,0a2.82,2.82,0,0,1,.16.49,3.25,3.25,0,0,1,.51.22,1.49,1.49,0,0,1,.81,1.29c0,.33,0,.66,0,1a.67.67,0,0,0,.55.76c.1,0,.18.17.27.26-.11.09-.22.23-.34.24C13.85,13,13.44,13,13,13Zm.26-.55V10.89a1.07,1.07,0,0,0-1.08-1.14,1.09,1.09,0,0,0-1.09,1.15c0,.51,0,1,0,1.55Zm-.71.79c-.18-.1-.29-.22-.4-.22s-.22.19-.2.25a.39.39,0,0,0,.27.23C12.3,13.51,12.4,13.37,12.55,13.24Z"/></g></g></svg>