<svg xmlns="http://www.w3.org/2000/svg" viewBox="0 0 18.38 10.81"><defs><style>.cls-1{fill:#f8aa1a;}</style></defs><g id="Layer_2" data-name="Layer 2"><g id="Layer_1-2" data-name="Layer 1"><path class="cls-1" d="M9.19,0h8.16c.95,0,1,.07,1,1,0,3,0,5.9,0,8.85,0,.76-.29,1-1,1q-8.19,0-16.38,0c-.71,0-1-.2-1-1C0,6.89,0,3.94,0,1,0,.05.07,0,1,0ZM1.1,9.73c1.84,0,3.59-.12,5.32,0,1.45.14,2.19-.65,3-1.65C8.92,7.75,8.46,7.38,8,7s-.55-.7-.08-1.11L9.56,4.47c-.67-.53-1.14-.92-1.64-1.28s-.43-.65-.06-1L8.92,1.1H1.1Zm16.17,0V1h-.85A39,39,0,0,1,12,1C10.5.83,9.78,1.67,9,2.64l1.19.91c.86.64.88.75.1,1.51-.44.43-.93.81-1.45,1.26l1.47,1.1c.7.54.72.71.1,1.31-.29.28-.61.53-.91.79l.13.17Z"/><path class="cls-1" d="M4,1.61h.75c.19,1,1.61,1.34,1.08,2.62H5A.62.62,0,0,1,4.9,4c0-.41-.1-.84-.6-.79-.2,0-.47.37-.52.61-.1.44,0,.92.56,1A1.52,1.52,0,0,1,5.86,6.11a2,2,0,0,1-.69,2.28,3.07,3.07,0,0,0-.53.74H3.92C3.73,8.2,2.31,7.86,2.8,6.55h.86s0,.09.08.15l.58.86c.19-.2.49-.39.54-.62.08-.46,0-1-.61-1a1.54,1.54,0,0,1-1.49-1.3A2,2,0,0,1,3.44,2.4C3.66,2.25,3.76,2,4,1.61Z"/><path class="cls-1" d="M13.78,1.61h.5A8.12,8.12,0,0,1,15.34,2.8a7.43,7.43,0,0,1,.45,1.44H14.72a.56.56,0,0,1-.08-.2c0-.41-.09-.84-.6-.78-.2,0-.45.37-.51.61-.1.44,0,.91.57,1a1.56,1.56,0,0,1,1.52,1.29A2,2,0,0,1,14.9,8.4a2.57,2.57,0,0,0-.48.71h-.6A8,8,0,0,1,12.8,8a7.21,7.21,0,0,1-.45-1.42h1.06s.07.08.07.12c0,.42.06.91.62.86.19,0,.45-.38.5-.63.11-.48,0-.92-.65-1a1.48,1.48,0,0,1-1.42-1.2,2.09,2.09,0,0,1,.59-2.25A4.81,4.81,0,0,0,13.78,1.61Z"/></g></g></svg>