<svg xmlns="http://www.w3.org/2000/svg" viewBox="0 0 64 64" id="statue-of-liberty">
  <path d="M42.64478,52.64746V49.00977H40.926v-3.1084h-1.6543V27.917a6.08169,6.08169,0,0,0-10.77979-3.86914L23.5481,17.85156a2.14094,2.14094,0,0,0-1.55719-.79785L23.007,12.18164h1.05475v-1h-.84619l.06768-.3244a2.01275,2.01275,0,0,0,.12134-.58209l.04437-.21265-.04608-.00964a9.43789,9.43789,0,0,0-1.61114-3.16712L21.386,6.32227l-.40577.56347a9.43884,9.43884,0,0,0-1.61114,3.167l-.04657.00977.04529.217a2.01333,2.01333,0,0,0,.11963.57343l.06854.32867h-.84625v1h1.05487l1.06976,5.12787a2.12539,2.12539,0,0,0-.65247,3.2276l6.91309,8.665V45.90137H25.24341v3.1084H23.45776v3.63769H20.87817v5.03027H45.29028V52.64746ZM38.25714,27.79187l-4.05572,4.59387a1.153,1.153,0,1,1-1.72852-1.52636l4.98-5.64063A5.006,5.006,0,0,1,38.25714,27.79187ZM21.386,8.06348a6.56027,6.56027,0,0,1,1.027,2.06933l-.09191.44068a1.02317,1.02317,0,0,1-1.87085-.00092l-.09156-.43872A6.55169,6.55169,0,0,1,21.386,8.06348Zm.59979,4.11816-.59979,2.876-.6-2.876ZM28.095,43.90314,33.72583,39.043l-.65381-.75781L28.095,42.58136V39.67853l1.73291-1.57013-.67187-.74024-1.061.96137v-9.477l-7.13135-8.93848a1.15365,1.15365,0,1,1,1.80323-1.43945l5.78173,7.24707.37793-.5791a5.03569,5.03569,0,0,1,7.90387-.73035l-5.10748,5.785a2.15307,2.15307,0,0,0,1.61231,3.57812c.04492,0,.08984-.001.13574-.00391a2.1366,2.1366,0,0,0,1.48047-.72363L38.27173,29.287v9.31994L34.969,41.43945l.65039.75977,2.65235-2.27472v5.97687H28.095Zm-1.85156,2.99823H39.926v2.1084H26.24341Zm-1.78565,3.1084h17.187v2.63769h-17.187Zm19.83252,6.668H21.87817V53.64746H44.29028ZM33.1814,13.49512a4.01123,4.01123,0,1,0,4.01123,4.01074A4.01511,4.01511,0,0,0,33.1814,13.49512Zm0,7.02246a3.01123,3.01123,0,1,1,3.01123-3.01172A3.01433,3.01433,0,0,1,33.1814,20.51758Zm-5.26465-2.18653H24.76782v-1h2.16846a6.2439,6.2439,0,0,1,1.82458-3.92688l-1.68249-1.68249.707-.707,1.739,1.739a6.22408,6.22408,0,0,1,3.15943-1.1651V9.25h1v2.33856A6.22131,6.22131,0,0,1,36.63538,12.608L38.3811,10.8623l.707.707-1.65808,1.65808a6.2539,6.2539,0,0,1,2.00086,4.10363H41.2356v1H38.45044v-.5a5.26685,5.26685,0,0,0-10.53369,0Zm1.2539,14.28125h1v1.75293h-1Zm6.33448,10.30762.65429.75781-1.05859.91407-.6543-.75782Z" fill="#fff"></path>
</svg>
