<svg xmlns="http://www.w3.org/2000/svg" viewBox="0 0 19.1 16.28"><defs><style>.cls-1{fill:#f8aa1a;}.cls-2{fill:#fff;}</style></defs><g id="Layer_2" data-name="Layer 2"><g id="Layer_1-2" data-name="Layer 1"><path class="cls-1" d="M13.36,9.66c0,1.51,0,3,0,4.53a2,2,0,0,1-2,2.08q-4.65,0-9.3,0a2.07,2.07,0,0,1-2-2c0-2.37,0-4.74,0-7.12,0-.68,0-1.36,0-2A2.11,2.11,0,0,1,2.14,2.92q4.55,0,9.09,0a2.13,2.13,0,0,1,2.13,2.22Zm-6.69,6h4.19a1.73,1.73,0,0,0,2-2c0-1,0-1.9,0-2.85,0-1.87,0-3.74,0-5.61a1.64,1.64,0,0,0-1.7-1.73H2.26A1.66,1.66,0,0,0,.55,5.2c0,2.92,0,5.84,0,8.76a1.65,1.65,0,0,0,1.75,1.72Z"/><path class="cls-1" d="M11.78,9.61a5,5,0,0,1-5.79,5A13,13,0,0,1,4.22,14a1,1,0,0,0-.46,0c-.42.1-.83.25-1.24.36a2.54,2.54,0,0,1-.48,0,1.42,1.42,0,0,1,0-.46A2.2,2.2,0,0,0,2,11.44a5.08,5.08,0,1,1,9.82-1.83ZM2.67,13.74c.41-.13.77-.2,1.09-.34a.82.82,0,0,1,.73.06,6.08,6.08,0,0,0,1.77.6,4.49,4.49,0,1,0-3.29-2,.93.93,0,0,1,.06.64A7.59,7.59,0,0,1,2.67,13.74Z"/><path class="cls-1" d="M5.65,9.16a3.56,3.56,0,0,0,1.71,1.55l.1-.06c.23-.28.4-.75.8-.64a5.31,5.31,0,0,1,1.48.71c.25.15.11.92-.16,1.24a1.76,1.76,0,0,1-1.93.52,6.11,6.11,0,0,1-3.8-3.23,1.7,1.7,0,0,1,.28-2.12,1.9,1.9,0,0,1,.8-.37.55.55,0,0,1,.68.42,2.94,2.94,0,0,0,.3.68A.83.83,0,0,1,5.65,9.16ZM5.06,7.32a1,1,0,0,0-.8,1.44,5.16,5.16,0,0,0,.68,1.18A5.11,5.11,0,0,0,8,12a1.17,1.17,0,0,0,1.13-.28c.3-.28.26-.56-.1-.74l-.77-.36-.33.43a.58.58,0,0,1-.74.18A4.17,4.17,0,0,1,5.29,9.76a.83.83,0,0,1,0-1.1.64.64,0,0,0,.08-.51A5.93,5.93,0,0,0,5.06,7.32Z"/><path class="cls-1" d="M12.81,12.27a3.55,3.55,0,0,1,1.23-2c.43-.41.85-.84,1.3-1.3l.87.92,1-1,.64.64-1,.93.71.69.94-.95.62.65-1,1,.58.58a.41.41,0,0,1,0,.6c-.54.56-1.09,1.11-1.66,1.64a2.57,2.57,0,0,1-1.29.6h-.46a3,3,0,0,1-1.69-.94,3,3,0,0,1-.83-1.58Zm2.54-2.56c-.41.39-1.39,1.32-1.78,1.75a1.59,1.59,0,0,0-.22,1.39,3.87,3.87,0,0,0,1.36,1.69,1.5,1.5,0,0,0,1.82,0c.5-.39,1.46-1.4,1.92-1.83C17.61,11.87,16.14,10.5,15.35,9.71Z"/><path class="cls-1" d="M11.84,8.8a4.89,4.89,0,0,1-.66-.05,5.08,5.08,0,0,1-1-.29l-.48-.17-.17,0A4.19,4.19,0,0,0,9,8.42l-.48.14a1,1,0,0,1-.23,0H7.87l0-.25a1,1,0,0,1,0-.46c.3-.7.39-1.21,0-1.71a4.23,4.23,0,0,1,.44-4A4.27,4.27,0,0,1,11.78.25h.29a4.28,4.28,0,0,1,4,4.27,4.21,4.21,0,0,1-1.22,3A4.27,4.27,0,0,1,11.84,8.8ZM9.66,7.25a1.19,1.19,0,0,1,.46.12l.22.09a4,4,0,0,0,1.11.37l.36,0a3.28,3.28,0,0,0,2.47-1.11,3.32,3.32,0,0,0-2.44-5.53l-.52,0A3.3,3.3,0,0,0,8.76,3.12,3.42,3.42,0,0,0,9,6.39a1,1,0,0,1,.08.7A2.35,2.35,0,0,1,9,7.44a1.7,1.7,0,0,0,.34-.12A.77.77,0,0,1,9.66,7.25Z"/><path class="cls-2" d="M11.78.5h.27a4,4,0,0,1-.21,8,3.31,3.31,0,0,1-.62-.05,10.49,10.49,0,0,1-1.41-.45,1,1,0,0,0-.24,0H9.44c-.33.08-.65.2-1,.29H8.08a1.15,1.15,0,0,1,0-.37A1.73,1.73,0,0,0,8,6,4.06,4.06,0,0,1,11.78.5M8.58,7.82a8.06,8.06,0,0,0,.86-.27.63.63,0,0,1,.22,0,1.08,1.08,0,0,1,.37.1,5.16,5.16,0,0,0,1.4.48l.39,0a3.57,3.57,0,0,0,0-7.14,3.48,3.48,0,0,0-.55,0A3.56,3.56,0,0,0,8.82,6.53a.8.8,0,0,1,0,.51,7,7,0,0,1-.29.78M11.78,0h0A4.57,4.57,0,0,0,7.54,6.18l0,.07.06.07c.3.36.3.73,0,1.45a1,1,0,0,0,0,.49.22.22,0,0,1,0,.08v.5h.7a1.09,1.09,0,0,0,.29,0l.49-.14.49-.14h.1l.47.17a5.37,5.37,0,0,0,1,.29,4.14,4.14,0,0,0,.7.06A4.52,4.52,0,0,0,15,7.7a4.43,4.43,0,0,0,1.29-3.17A4.54,4.54,0,0,0,12.09,0ZM9.37,7.05a1.18,1.18,0,0,0-.13-.79,3.16,3.16,0,0,1-.25-3,3,3,0,0,1,2.37-1.74,3.87,3.87,0,0,1,.48,0,3.07,3.07,0,0,1,2.25,5.12,3,3,0,0,1-2.27,1l-.34,0a4,4,0,0,1-1.05-.35l-.21-.09A1.39,1.39,0,0,0,9.66,7a1,1,0,0,0-.29,0Z"/></g></g></svg>